<svg xmlns="http://www.w3.org/2000/svg" viewBox="0 0 512 512">
  <g>
    <path d="M495.6,318.1c0-0.1-41-169.5-41-169.5c-2.9-18.6-20.6-52.8-68.2-52.8c-6.6,0-11.9,5.3-11.9,11.9c0,6.6,5.3,11.9,11.9,11.9c38.5,0,44.2,29.6,44.7,32.9l37.8,156.3h-16.4c-5.9-47-46-83.5-94.6-83.5s-88.7,36.5-94.6,83.5h-14.4c-5.9-47-46-83.5-94.6-83.5s-88.7,36.5-94.6,83.5H43.1l37.8-156.3c0.5-3.3,6.2-32.9,44.7-32.9c6.6,0,11.9-5.3,11.9-11.9c0-6.6-5.3-11.9-11.9-11.9c-47.6,0-65.3,34.1-68.2,52.8c0,0-41,169.4-41,169.5c-2.1,8.8,4.2,14.5,11.3,14.5c0.1,0,0.2,0,0.3,0h31.6c5.9,47,46,83.5,94.6,83.5s88.7-36.5,94.6-83.5h14.4c5.9,47,46,83.5,94.6,83.5s88.7-36.5,94.6-83.5H484c0.1,0,0.2,0,0.3,0C491.4,332.6,497.7,326.9,495.6,318.1z M224.7,332.6c-5.7,33.9-35.1,59.7-70.6,59.7s-64.9-25.9-70.6-59.7c-0.7-3.9-1.1-7.8-1.1-11.9c0-4.1,0.4-8,1.1-11.9c5.7-33.9,35.1-59.7,70.6-59.7s64.9,25.9,70.6,59.7c0.7,3.9,1.1,7.8,1.1,11.9C225.8,324.8,225.4,328.7,224.7,332.6z M428.4,332.6c-5.7,33.9-35.1,59.7-70.6,59.7s-64.9-25.9-70.6-59.7c-0.7-3.9-1.1-7.8-1.1-11.9c0-4.1,0.4-8,1.1-11.9c5.7-33.9,35.1-59.7,70.6-59.7s64.9,25.9,70.6,59.7c0.7,3.9,1.1,7.8,1.1,11.9C429.5,324.8,429,328.7,428.4,332.6z" fill="#d22856"/>
  </g>
</svg>
